<svg width="760" height="560" viewBox="0 0 760 560" fill="none" xmlns="http://www.w3.org/2000/svg"><rect x="78" y="52" width="604" height="420" rx="34" fill="#0E1C30" stroke="#24415F" stroke-width="2"/><rect x="112" y="96" width="536" height="326" rx="22" fill="#07111F"/><circle cx="138" cy="78" r="8" fill="#FF5F57"/><circle cx="164" cy="78" r="8" fill="#FFBD2E"/><circle cx="190" cy="78" r="8" fill="#28C840"/><rect x="144" y="136" width="190" height="28" rx="10" fill="#00C2FF"/><rect x="144" y="186" width="310" height="18" rx="9" fill="#24415F"/><rect x="144" y="222" width="250" height="18" rx="9" fill="#24415F"/><rect x="144" y="282" width="130" height="72" rx="18" fill="#102942" stroke="#00C2FF"/><rect x="300" y="282" width="130" height="72" rx="18" fill="#102942" stroke="#2AF598"/><rect x="456" y="282" width="130" height="72" rx="18" fill="#102942" stroke="#00C2FF"/><path d="M514 156L552 194L514 232" stroke="#2AF598" stroke-width="14" stroke-linecap="round" stroke-linejoin="round"/><path d="M464 156L426 194L464 232" stroke="#00C2FF" stroke-width="14" stroke-linecap="round" stroke-linejoin="round"/><path d="M498 142L472 246" stroke="#FFFFFF" stroke-width="10" stroke-linecap="round"/><circle cx="638" cy="440" r="66" fill="#00C2FF" fill-opacity=".16"/><circle cx="638" cy="440" r="38" fill="#2AF598" fill-opacity=".28"/></svg>