<svg width="680" height="430" viewBox="0 0 680 430" fill="none" xmlns="http://www.w3.org/2000/svg"><rect x="20" y="20" width="640" height="390" rx="32" fill="#07111F" stroke="#24415F" stroke-width="2"/><rect x="58" y="62" width="150" height="306" rx="22" fill="#0E1C30"/><rect x="238" y="62" width="384" height="92" rx="22" fill="#0E1C30"/><rect x="238" y="184" width="178" height="184" rx="22" fill="#0E1C30"/><rect x="444" y="184" width="178" height="184" rx="22" fill="#0E1C30"/><rect x="82" y="96" width="88" height="16" rx="8" fill="#00C2FF"/><rect x="82" y="136" width="102" height="12" rx="6" fill="#24415F"/><rect x="82" y="166" width="74" height="12" rx="6" fill="#24415F"/><rect x="82" y="196" width="92" height="12" rx="6" fill="#24415F"/><path d="M270 120H590" stroke="#24415F" stroke-width="14" stroke-linecap="round"/><path d="M270 120H456" stroke="#2AF598" stroke-width="14" stroke-linecap="round"/><path d="M280 316L318 278L354 302L394 242" stroke="#00C2FF" stroke-width="10" stroke-linecap="round" stroke-linejoin="round"/><rect x="480" y="238" width="22" height="78" rx="8" fill="#00C2FF"/><rect x="524" y="264" width="22" height="52" rx="8" fill="#2AF598"/><rect x="568" y="220" width="22" height="96" rx="8" fill="#00C2FF"/></svg>